# Blender v2.79 (sub 0) OBJ File: ''
# www.blender.org
mtllib stick.mtl
o 柱体.001
v 0.000000 0.000000 -1.000000
v 0.000000 1.000000 -1.000000
v 0.382683 1.000000 -0.923880
v 0.382683 0.000000 -0.923880
v 0.707107 1.000000 -0.707107
v 0.707107 0.000000 -0.707107
v 0.923880 1.000000 -0.382683
v 0.923880 0.000000 -0.382683
v 1.000000 1.000000 0.000000
v 1.000000 0.000000 0.000000
v 0.923880 1.000000 0.382684
v 0.923880 -0.000000 0.382684
v 0.707107 1.000000 0.707107
v 0.707107 -0.000000 0.707107
v 0.382683 1.000000 0.923880
v 0.382683 -0.000000 0.923880
v 0.000000 1.000000 1.000000
v 0.000000 -0.000000 1.000000
v -0.382683 1.000000 0.923880
v -0.382683 -0.000000 0.923880
v -0.707107 1.000000 0.707107
v -0.707107 -0.000000 0.707107
v -0.923880 1.000000 0.382684
v -0.923880 -0.000000 0.382684
v -1.000000 1.000000 0.000000
v -1.000000 0.000000 0.000000
v -0.923879 1.000000 -0.382684
v -0.923879 0.000000 -0.382684
v -0.707107 1.000000 -0.707107
v -0.707107 0.000000 -0.707107
v -0.382683 1.000000 -0.923880
v -0.382683 0.000000 -0.923880
vn -0.0000 0.0000 -1.0000
vn 0.3827 0.0000 -0.9239
vn 0.7071 0.0000 -0.7071
vn 0.9239 0.0000 -0.3827
vn 1.0000 0.0000 -0.0000
vn 0.9239 -0.0000 0.3827
vn 0.7071 -0.0000 0.7071
vn 0.3827 -0.0000 0.9239
vn 0.0000 -0.0000 1.0000
vn -0.3827 -0.0000 0.9239
vn -0.7071 -0.0000 0.7071
vn -0.9239 -0.0000 0.3827
vn -1.0000 -0.0000 -0.0000
vn -0.9239 0.0000 -0.3827
vn -0.7071 0.0000 -0.7071
vn -0.3827 0.0000 -0.9239
usemtl None.001
s 1
f 2//1 4//2 1//1
f 3//2 6//3 4//2
f 5//3 8//4 6//3
f 7//4 10//5 8//4
f 9//5 12//6 10//5
f 11//6 14//7 12//6
f 13//7 16//8 14//7
f 15//8 18//9 16//8
f 17//9 20//10 18//9
f 19//10 22//11 20//10
f 21//11 24//12 22//11
f 23//12 26//13 24//12
f 25//13 28//14 26//13
f 27//14 30//15 28//14
f 29//15 32//16 30//15
f 31//16 1//1 32//16
f 2//1 3//2 4//2
f 3//2 5//3 6//3
f 5//3 7//4 8//4
f 7//4 9//5 10//5
f 9//5 11//6 12//6
f 11//6 13//7 14//7
f 13//7 15//8 16//8
f 15//8 17//9 18//9
f 17//9 19//10 20//10
f 19//10 21//11 22//11
f 21//11 23//12 24//12
f 23//12 25//13 26//13
f 25//13 27//14 28//14
f 27//14 29//15 30//15
f 29//15 31//16 32//16
f 31//16 2//1 1//1
